<?xml version="1.0" encoding="utf-8"?>
<!-- Generator: Adobe Illustrator 22.1.0, SVG Export Plug-In . SVG Version: 6.00 Build 0)  -->
<svg version="1.1" id="Capa_1" xmlns="http://www.w3.org/2000/svg" xmlns:xlink="http://www.w3.org/1999/xlink" x="0px" y="0px"
	 viewBox="0 0 63.7 63.7" style="enable-background:new 0 0 63.7 63.7;" xml:space="preserve">
<style type="text/css">
	.st0{fill:#FFFFFF;}
</style>
<g>
	<g>
		<circle class="st0" cx="49.4" cy="24.1" r="4.4"/>
		<path class="st0" d="M61.1,27.8c-4.7,1.2-9.5,2.3-14.3,3.1c0-0.3-0.1-0.6-0.2-0.9c-1-3.5-6.2-4.6-7.5-5.1c0.8-0.9,1.6-1.8,2.5-2.7
			c1.8-2-1.1-5-3-3c-1.5,1.6-3,3.3-4.5,4.9c-0.9,0.9-0.8,2.7,0.4,3.3c0.7,0.3,1.4,0.7,2.1,1C32,29.8,29.7,30,29.6,30
			c-9.4,0.8-17.8,1.6-27.2,2.4c-3.3,0.3-3.1,5.5,0.3,5.2c5.6-0.5,11.2-1,16.8-1.5C14.4,37.4,9.2,38.7,4.1,40
			c-3.3,0.8-1.9,5.9,1.4,5.1c6.6-1.7,32-7.4,36.8-9.2c6.7-1,13.4-2.4,19.9-4.1C64.9,31.1,63.8,27.1,61.1,27.8z"/>
		<g>
			<path class="st0" d="M32.8,27.9c-0.3-0.4-0.6-0.9-0.7-1.5c0-0.2,0-0.5,0-0.7L32,25.6L0.9,20.7l3.8,9.9l24.7-2.1
				C29.5,28.5,30.6,28.4,32.8,27.9z"/>
		</g>
	</g>
</g>
</svg>
