<?xml version="1.0" encoding="utf-8"?>
<!-- Generator: Adobe Illustrator 22.1.0, SVG Export Plug-In . SVG Version: 6.00 Build 0)  -->
<svg version="1.1" id="Capa_1" xmlns="http://www.w3.org/2000/svg" xmlns:xlink="http://www.w3.org/1999/xlink" x="0px" y="0px"
	 viewBox="0 0 63.7 63.7" style="enable-background:new 0 0 63.7 63.7;" xml:space="preserve">
<style type="text/css">
	.st0{fill:#FFFFFF;}
</style>
<g>
	<g>
		<circle class="st0" cx="46.6" cy="19.7" r="4.4"/>
		<path class="st0" d="M58.9,19.5c-4,2.6-8.2,5.2-12.6,7.5c-0.1-0.3-0.3-0.6-0.4-0.8c-2.1-3-7.3-2.4-8.8-2.4
			c0.5-1.1,0.9-2.2,1.5-3.3c1.1-2.5-2.7-4.3-3.8-1.8c-0.9,2-1.8,4.1-2.7,6c-0.6,1.1,0.1,2.8,1.4,3c0.8,0.1,1.6,0.2,2.3,0.2
			c-3.9,2.8-6,3.7-6.1,3.8c-8.7,3.8-16.4,7.2-25,11c-3,1.3-1.2,6.2,1.9,4.8c5.2-2.3,10.2-4.5,15.4-6.8c-4.4,2.9-8.9,5.8-13.4,8.6
			c-2.9,1.8,0.1,6.2,3,4.4c5.7-3.8,28-17.3,32-20.5c6-3.1,12-6.6,17.6-10.3C63.5,21.4,61.2,17.9,58.9,19.5z"/>
		<g>
			<path class="st0" d="M32.1,28.6c-0.4-0.3-0.9-0.6-1.2-1.2c-0.1-0.2-0.2-0.5-0.2-0.7l-0.1,0L-0.5,32l6.8,8.2l22.7-10
				C29.2,30.2,30.2,29.8,32.1,28.6z"/>
		</g>
	</g>
</g>
</svg>
