<?xml version="1.0" encoding="utf-8"?>
<!-- Generator: Adobe Illustrator 22.0.0, SVG Export Plug-In . SVG Version: 6.00 Build 0)  -->
<svg version="1.1" xmlns="http://www.w3.org/2000/svg" xmlns:xlink="http://www.w3.org/1999/xlink" x="0px" y="0px"
	 viewBox="0 0 500 500" style="enable-background:new 0 0 500 500;" xml:space="preserve">
<style type="text/css">
	.st0{display:none;}
	.st1{display:inline;fill:#272727;}
	.st2{fill:#AE191A;stroke:#FBFBFB;stroke-width:0.2176;stroke-miterlimit:10;}
	.st3{fill:#FBFBFB;}
	.st4{fill:#AE191A;}
</style>
<g id="Calque_3" class="st0">
	<rect class="st1" width="500" height="500"/>
</g>
<g id="Calque_2">
	<g>
		<path class="st2" d="M210.1,155.6c-0.7,1-1.5,1.9-2.4,2.6c-0.8,0.7-1.7,1.2-2.5,1.5c-0.8,0.3-1.7,0.5-2.4,0.5
			c-0.8,0-1.5-0.2-2.2-0.5c-0.6-0.4-1.2-0.9-1.7-1.6c-0.5-0.7-0.9-1.6-1.2-2.6c-0.3-1-0.4-2.3-0.4-3.7c0-2.4,0.3-4.7,1-7.1
			c0.7-2.3,1.6-4.4,2.8-6.3c1.2-1.9,2.6-3.3,4.2-4.5c1.6-1.1,3.4-1.7,5.4-1.7c0.6,0,1.2,0.1,1.8,0.4c0.6,0.3,1,0.6,1.4,1.1
			c0.4,0.5,0.7,1,1,1.7c0.2,0.7,0.4,1.4,0.4,2.2c0,0.2,0,0.3,0,0.5c0,0.2,0,0.3,0,0.5l-5,1.3c-0.3-0.6-0.7-1-1.1-1
			c-0.4,0-0.8,0.2-1.3,0.7c-0.4,0.5-0.9,1.1-1.3,1.8c-0.4,0.7-0.9,1.6-1.3,2.5c-0.4,0.9-0.8,1.9-1.1,2.8c-0.3,0.9-0.6,1.8-0.7,2.7
			c-0.2,0.9-0.3,1.5-0.3,2.1c0,0.8,0.1,1.4,0.3,1.7c0.2,0.3,0.5,0.5,0.9,0.5c0.3,0,0.6-0.1,1-0.3c0.4-0.2,0.7-0.5,1-0.8
			c0.3-0.3,0.6-0.7,0.8-1.2c0.3-0.4,0.4-0.9,0.5-1.3l4.3,1.8C211.5,153.4,210.8,154.6,210.1,155.6z"/>
	</g>
	<g>
		<path class="st2" d="M201.2,154.6c-0.5,1.2-1.2,2.2-2.1,3c-0.9,0.8-2,1.5-3.2,1.9c-1.2,0.5-2.5,0.7-3.9,0.7c-1,0-2-0.3-3-0.8
			c-1-0.5-1.9-1.4-2.8-2.6l2.7-5.5c0.2,0.3,0.4,0.7,0.8,1c0.3,0.3,0.7,0.6,1.2,0.9c0.4,0.3,0.9,0.5,1.3,0.6c0.4,0.2,0.8,0.2,1.2,0.2
			c0.3,0,0.6-0.1,0.9-0.2c0.3-0.1,0.6-0.3,0.9-0.5c0.3-0.2,0.5-0.4,0.6-0.7c0.2-0.3,0.2-0.6,0.2-0.9c0-0.6-0.2-1.2-0.6-1.7
			c-0.4-0.5-0.9-1-1.4-1.5c-0.6-0.5-1.2-0.9-1.8-1.4c-0.7-0.5-1.3-1-1.8-1.5c-0.6-0.5-1-1.1-1.4-1.8c-0.4-0.7-0.6-1.4-0.6-2.2
			c0-1.3,0.4-2.6,1.1-3.7c0.8-1.1,1.7-2.1,2.9-3c1.1-0.8,2.4-1.5,3.7-2c1.4-0.5,2.6-0.7,3.8-0.7c0.7,0,1.3,0.1,1.9,0.2
			c0.6,0.2,1.1,0.4,1.5,0.8c0.4,0.4,0.8,0.8,1,1.4c0.3,0.6,0.4,1.3,0.4,2.1c0,0.4,0,0.7-0.1,1.1c-0.1,0.4-0.1,0.7-0.2,1.1l-5.4,1.6
			c0-0.2,0.1-0.4,0.1-0.6c0-0.2,0.1-0.4,0.1-0.6c0-0.8-0.1-1.3-0.4-1.7c-0.3-0.3-0.6-0.5-1-0.5c-0.2,0-0.4,0.1-0.7,0.2
			c-0.3,0.2-0.6,0.3-0.8,0.6c-0.3,0.2-0.5,0.5-0.7,0.9c-0.2,0.3-0.3,0.7-0.3,1.1c0,0.6,0.2,1.1,0.5,1.5c0.3,0.4,0.7,0.8,1.2,1.1
			c0.5,0.4,1,0.7,1.6,1.1c0.6,0.4,1.1,0.8,1.6,1.4c0.5,0.6,0.9,1.3,1.2,2.2c0.3,0.9,0.5,2,0.5,3.3
			C202,152.2,201.7,153.5,201.2,154.6z"/>
	</g>
</g>
<g id="Calque_1">
	<g>
		<g id="XMLID_1_">
			<g>
				<path class="st3" d="M239.6,191c-1.1-6.2-1.9-12.5,2.7-17.8c1.8-2,3.1-3.9,3.5-6.7c0.4-2.3,2.6-1.8,4.3-1.5
					c2,0.4,3.7,0.8,5.6-0.9c1.2-1.1,2.9-1.2,3.8,1.1c0.5,1.2,1.6,2.2,2.8,3.8c-2.2-0.4-4-0.6-6-1c1.3,2.2,3.4,2.3,5.3,2.4
					c5.4,0.4,6.9,2.9,4.9,7.9c-0.3,0.6-0.4,1.3-0.8,1.9c-1.4,1.9-1,3.3,1,4.3c1.5,0.8,1.9,2,1.8,3.6c-0.1,2.2-0.4,4.3-1.1,6.1
					c-0.8,1.8-2,3.5-4,4.7c-0.7,0.4-2.4,0.5-2.9,0c-2.1-2-4.4-2.3-7.1-2.1c-1.9,0.2-3.6,0.1-5.3-0.3c-2.5-0.6-4.8-1.8-6.9-3.4
					C240.5,192.7,239.8,191.8,239.6,191z M243.9,179.1c-1.9,2.1-2.9,4.3-2.1,7.1c1.1-1.9,1.9-4,3.3-5.6c2.3-2.6,5.4-4.7,4.3-9.1
					c-0.4,0.2-1.4,0.5-1.4,0.8C248.6,175.7,245.8,177.1,243.9,179.1z"/>
				<path class="st3" d="M224.4,66.2c-3.4-2.5-6.8-0.9-9.9-1.6c0,0.3-0.1,0.6-0.1,1C217.5,65.7,220.6,65.9,224.4,66.2z M220.7,63.5
					c0.2-0.2,0.3-0.3,0.5-0.5c-0.1-0.5-0.2-1.1-0.4-1.8c2-0.2,4.1-0.5,3.9-3.4c4.5,0.5,8.2,2.1,11.3,5c0.3,0.3,0.5,1.4,0.2,1.7
					c-2.1,2.9-1.9,6.1-1.4,9.4c0.2,1.2,0,2.5,0,4.3c1.2-1,2-1.6,2.9-2.3c2.4-1.9,4.4-1.1,4.9,1.9c0.7,4.4-2,8.4-6.5,8.7
					c-2.3,0.2-3.5,1-4.3,3.1c-1.4,3.9-4.4,5.3-8.3,5c-5.5-0.4-11-0.8-16.8-1c2,0.7,4,1.9,6.1,2.1c4.1,0.5,8.2,0.6,12.3,0.6
					c3.2,0,6-1.3,7.4-4.3c1.3-2.6,2.6-4.7,5.9-4.7c0.6,0,1.3-0.5,2-0.8c2,4.3,4.1,8.7,6,13.1c0.7,1.5,1.3,3,2,4.5
					c1.1,2.5,2.2,5,3.3,7.6c-1.8,2.1-3.7,4.3-5.7,6.3c-0.6,0.6-1.8,0.9-2.7,1c-6.9,0.1-13.8,0.3-20.7,0.4c-4.9,0.1-9.8,0.2-14.7,0.2
					c-1.5,0-2.9,0.2-4.9,0.4c0.4-4.1,0.8-8.1,1.3-12c0.4-2.9,0.8-5.8,1.6-8.6c0.5-1.8,0.2-2.8-1.6-3.6c-1.5-0.6-2.8-1.6-4.1-2.7
					c-3.2-2.8-3.1-6.8,0.2-9.5c0.4-0.4,0.8-0.9,1.1-1.4c1.6-2.8,3.3-5.6,4.9-8.4c0.3,0.1,0.5,0.1,0.8,0.2c-0.6-1-1.2-2-1.9-3.3
					c0.9-0.6,1.9-1.3,2.9-2c1.4-1,2.5-2.1,2.2-4c-0.1-0.6,0.2-1.5,0.7-2c2.5-2.7,5.8-4,10-5c-1.6,1.5-2.6,2.5-3.6,3.4
					C218.4,61.9,219.6,62.7,220.7,63.5z M227.1,102.2c-0.2-0.2-0.4-0.4-0.6-0.7c-4.3,4.2-8.6,8.4-12.8,12.7c0.4,0.4,0.7,0.7,1.1,1.1
					C218.8,110.9,223,106.5,227.1,102.2z"/>
				<path class="st3" d="M66.1,35.3c-1.5-2.1-0.9-4.1,0.8-6.1c-4,2.7-4.8,2.6-8-0.6c-1.5-1.4-2.9-2.9-4.4-4.3
					c-1.2-1.1-1.7-2.3-0.9-3.9c1-1.9,2-3.8,3.1-5.6c2.6-4.7,11.9-6.7,16.3-5.5c0.5,0.1,1,0.6,1.4,0.5c3.9-0.6,4.8,2.1,5.5,5
					c0.9,3.5,1.5,7,2.6,10.5c0.8,2.6,1.8,5.1,3,7.6c2.1,4.1,1.8,7.4-1.2,11.1c-0.6,0.7-1.1,1.3-1.8,1.8c-3.5,2.9-3.8,2.8-6.8-0.5
					c-2.1-2.3-4.5-4.4-6.8-6.6C67.8,37.6,66.9,36.5,66.1,35.3z M67.8,27c0.2,4.1,0.1,8.5,6.1,8.9c-4.6-2.1-4.7-6.2-4.6-10.3
					c-2.7-0.8-5.8,0.9-7.7-2.1c1.8-1,3.5-1.8,5.1-2.7c2.1-1.3,4-1.8,6,0.2c0.5,0.5,1.2,0.6,1.8,0.9c0.1-0.1,0.1-0.2,0.2-0.3
					c-0.6-0.6-1.1-1.2-2-2.1c0.9-0.6,1.7-1.2,2.5-1.7c-0.2-0.3-0.3-0.6-0.5-0.8c-5.2,1.9-10.5,3.7-15.8,5.6
					C61.3,25.9,61.3,25.9,67.8,27z"/>
				<path class="st4" d="M355.5,391.8c-4.8-8.2-11.8-14-20-18.3l0.9-1.8c1.4,0.7,2.8,1.5,4.3,2.2c4.3,2.3,8.2,5,11.2,9
					c2.7,3.4,4.6,7.6,10,8.3c4.1,0.6,5.6,1,4.2-3.7c-0.1-0.3,0-0.7-0.1-1c-0.4-2,0.5-2.9,2.5-2.9c1.8-0.1,3.7-0.3,5.7-0.4
					c-0.3-0.6-0.3-1.1-0.6-1.3c-5.3-4.7-8.7-11.3-15.8-14.4c-3.7-1.6-6.6-4.9-10-7.1l1.3-2c1.7,1.2,3.5,2.3,5.3,3.4
					c2.3,1.5,4.7,3,7.1,4.3c2.1,1.1,4.3,2,6.4,2.9c-0.2,0.1-0.4,0.3-0.5,0.4c0.5,1,0.8,2.1,1.4,2.9c1.3,1.7,2.9,3.2,4.2,4.8
					c1.2,1.6,2.4,3,4.6,1.6c0.4-0.3,1.3,0,1.9,0.2c2.8,0.8,5.7,1.7,8.9,2.7c0-3.7,0.1-7.1,0-10.5c-0.1-2.3,0.7-3.3,3.1-3.1
					c8.1,0.6,16.2,1.2,24.3,1.7c0.9,0.1,1.8-0.6,2.7-0.9c-0.3-0.7-0.5-1.5-0.9-2.1c-0.2-0.4-0.7-0.8-1-1.2
					c-2.8-4.6-7.1-7.6-11.5-10.4c-8.1-5.1-17.7-6-26.6-8.9l0.7-2.2c0.2,0.1,0.4,0.1,0.6,0.2c4,1.1,7.9,2.2,12,3.1
					c15.5,3.4,26,13,33.5,26.6c6.9,12.5,11.4,25.8,16.2,39.1c3.6,10,7.2,20,10.9,30c0.3,0.9,0.8,1.7,1.2,2.6c0.8-0.6,1.5-1,2.1-1.4
					c3.2-1.9,5.5-1.5,7.4,1.6c8.7,14,14.9,28.7,13.8,45.7c-0.2,2.7-0.5,4.8-3.4,5.7c-1.5,0-3.1,0-4.6,0c-8-3-13.2-9.3-18.3-15.6
					c-7-8.7-13.6-17.6-21-26c-9.6-10.9-21-19.9-32.6-28.7c-8.8-6.6-17.7-13-26.5-19.4C364.7,403.3,359.3,398.2,355.5,391.8z"/>
				<path class="st4" d="M249.6,171.5c1.1,4.4-2,6.5-4.3,9.1c-1.4,1.6-2.2,3.7-3.3,5.6c-0.9-2.8,0.1-5,2.1-7.1
					c1.8-2,4.7-3.4,4.2-6.9C248.1,172.1,249.2,171.7,249.6,171.5z"/>
				<path class="st4" d="M259.5,165.2c-0.9-2.3-2.7-2.2-3.8-1.1c-1.8,1.7-3.6,1.3-5.6,0.9c-1.6-0.3-3.9-0.7-4.3,1.5
					c-0.5,2.7-1.8,4.7-3.5,6.7c-4.6,5.3-3.8,11.6-2.7,17.8c0.1,0.8,0.9,1.7,1.5,2.2c2.2,1.6,4.5,2.8,6.9,3.4l-0.5,2.1
					c-1.4-0.4-2.9-0.9-4.2-1.4c-3.1-1.3-6-3.2-6.4-7c-0.2-1.9-0.4-3.7-0.4-5.6c-0.1-4.4,0.5-8.7,3.5-12.3c1.3-1.6,2.6-3.4,3.2-5.3
					c1.1-3.4,3-5,6.7-4.3c1.9,0.4,3.3,0.2,5-0.8c2.8-1.6,4.9-0.6,6.6,2.1c1,1.6,2.4,3,3.8,4.1c4.6,3.6,5.5,6.2,3.1,11.5
					c-1.2,2.6-0.2,3.8,1.8,4.5c4.6,1.5,9.3,2.8,14,4c1.7,0.4,3.5,0.3,5.3,0.4c-9-11.7-17.9-23.2-27.2-35.4c-1,1.6-2,3-3.1,4.6
					c-2.1-2.6-0.6-4.2,0.5-5.4c5.2-5.5,11.4-9.6,18-13.1c0.2-0.1,0.4,0,1.1,0.1c-1.3,1-2.3,1.8-3.2,2.6c-3,2.6-5.9,5.2-8.9,7.7
					c-1.1,1-1.5,1.9-0.5,3.3c1.8,2.6,3.2,5.5,5.1,7.9c6.1,7.7,12.4,15.2,18.6,22.8c0.9,1,2.7,1.7,2.9,2.8c0.4,2.1,1.7,2.1,3,1.9
					c3-0.4,5.9-1,8.8-1.6c3.5-0.8,6.7-0.2,9.6,2c-0.8,0.4-1.6,0.3-2.3,0.4c-2.6,0.3-5.3,0.4-7.9,0.8c-2.4,0.4-4.7,1.2-7.1,1.4
					c-7.6,0.6-15.1-0.1-22.3-2.6c-2.9-1-3.4-0.4-4.2,2.5c-0.4,1.3-0.8,2.7-1.3,4h0l-1.8-0.7c0.8-1.9,1-3.9,1.1-6.1
					c0.1-1.6-0.3-2.8-1.8-3.6c-2-1-2.4-2.4-1-4.3c0.4-0.5,0.6-1.2,0.8-1.9c2.1-4.9,0.5-7.4-4.9-7.9c-1.9-0.2-4-0.3-5.3-2.4
					c2,0.3,3.7,0.6,6,1C261.1,167.4,260,166.4,259.5,165.2z"/>
				<path class="st4" d="M226.5,101.5c0.2,0.2,0.4,0.4,0.6,0.7c-4.1,4.4-8.3,8.7-12.4,13.1c-0.3-0.4-0.7-0.7-1.1-1.1
					C217.9,109.9,222.2,105.7,226.5,101.5z"/>
				<path class="st4" d="M237.9,121.1c-5.1-0.2-10.2-0.3-15.3-0.2l0-1.4c6.9-0.1,13.8-0.2,20.7-0.4c0.9,0,2.1-0.3,2.7-1
					c2.1-2,3.9-4.3,5.7-6.3c-1.1-2.5-2.2-5.1-3.3-7.6l1.2-0.5c1,2.4,2.3,4.8,3.6,7.2c3.8-1.9,7.4-1.5,11.1-0.2
					c0.5,0.2,1.2,0,1.7-0.2c6.3-2.7,12.5-1.7,18.4,1.2c3.7,1.8,7.4,3.5,11.5,4.4l-0.5,2.1c-0.9-0.2-1.9-0.2-2.9-0.3
					c-5.4-0.1-10.9,0.9-16.2,1.8c-5.5,0.9-10.7,3-16.4,2.6C252.6,121.8,245.3,121.3,237.9,121.1z"/>
				<path class="st4" d="M253.1,148c4.5-4.6,7.6-10.1,9.7-16.2c1.1,2.5,0.6,5.8-1.1,9.1c-4.3,8.2-11,14.1-18.1,19.7
					c-2.5,2-5.2,3.9-8,5.4c-1.7,0.9-3.9,1.4-5.9,1.5c-5.6,0.2-11.2,0.1-16.9,0.1c0-0.4,0-0.8,0-1.2c2.3-0.3,4.6-0.6,6.8-0.8
					c3.5-0.4,7.1-0.8,10.6-1c4.2-0.2,7.3-2.5,10.2-5C244.9,156,249.1,152.1,253.1,148z"/>
				<path class="st4" d="M214.4,64.6c3.1,0.7,6.5-0.9,9.9,1.6c-3.8-0.2-6.9-0.5-10-0.7C214.4,65.2,214.4,64.9,214.4,64.6z"/>
				<path class="st4" d="M248.6,206.3c-0.9,0-1.9,0.1-2.8,0c-6.9-1-13.1-3.9-19.2-6.9c-6.6-3.3-13.1-6.6-19.7-9.9
					c-0.6-0.3-1.2-0.8-1.8-1.2c0.1-0.3,0.3-0.6,0.4-0.9c4,1.5,8.2,2.8,12.1,4.5c7,3.1,13.9,6.7,20.9,9.8c2.9,1.3,6,2.1,8.9,3.1
					c0.4,0.2,0.8,0.4,1.3,0.7C248.7,205.8,248.7,206.1,248.6,206.3z"/>
				<path class="st4" d="M208.8,64.6c0-1.2,1.1-2.5,2-3.6c0.8-0.9,2-1.6,2.4-1.9c-0.5-2.5-1.5-4.7-1.3-6.8c0.4-3.8,3.4-5.8,7-4.9
					c3.3,0.8,6.4,2.3,9.4,3.8c3.3,1.7,6.5,3.8,9.7,5.7c1.6,0.9,3.2,1.7,4.7,2.6c2.4,1.5,4,3.6,4.1,6.5c0.1,7.7,0.5,15.4,0,23.1
					c-0.3,5.3,0.8,10,2.8,14.6l-1.2,0.5c-0.7-1.5-1.3-3-2-4.5c-2-4.4-4-8.7-6-13.1c-0.7,0.3-1.4,0.8-2,0.8c-3.2,0.1-4.6,2.1-5.9,4.7
					c-1.4,3-4.2,4.3-7.4,4.3c-4.1,0-8.2-0.2-12.3-0.6c-2.1-0.3-4.1-1.4-6.1-2.1c5.7,0.1,11.2,0.6,16.8,1c3.9,0.3,6.9-1.2,8.3-5
					c0.8-2.1,2-2.9,4.3-3.1c4.5-0.4,7.3-4.3,6.5-8.7c-0.5-3-2.5-3.8-4.9-1.9c-0.8,0.7-1.7,1.3-2.9,2.3c0-1.8,0.2-3.1,0-4.3
					c-0.6-3.3-0.7-6.5,1.4-9.4c0.3-0.4,0.1-1.4-0.2-1.7c-3.1-2.9-6.8-4.5-11.3-5c0.2,2.9-1.9,3.2-3.9,3.4c0.1,0.7,0.3,1.3,0.4,1.8
					c-0.2,0.1-0.3,0.3-0.5,0.5c-1.1-0.8-2.3-1.6-3.4-2.3c1-0.9,2-1.9,3.6-3.4c-4.2,1-7.4,2.3-10,5c-0.4,0.5-0.8,1.4-0.7,2
					c0.3,2-0.8,3.1-2.2,4c-0.9,0.7-1.9,1.3-2.9,2l-1.3,0.1c-0.1-1,0.7-1.5,2.9-2.9C208.1,67.2,208.9,66.4,208.8,64.6z"/>
				<path class="st4" d="M190.1,190.4c6.7,15.4,18.2,26.4,29.6,38C210.4,227.5,188.5,199.5,190.1,190.4z"/>
				<path class="st4" d="M158.4,169.8c4.6,0,8.7,0,13,0C170,172.6,163.2,172.6,158.4,169.8z"/>
				<path class="st4" d="M245.9,229.1c-11.5,5.9-22.7,11.7-34,17.6c2.8,4.5,5.4,8.6,8.1,12.9c11.4-5.9,22.6-11.7,33.9-17.6
					C251.1,237.7,248.6,233.5,245.9,229.1z M253.9,225.3c2.9,4.6,5.5,8.7,8.1,12.9c7.8-3.8,15.4-7.5,23.2-11.3
					c-3-4.3-5.8-8.4-8.7-12.6C268.9,217.9,261.5,221.5,253.9,225.3z M272.2,211c-3.8-2.9-7.8-5.6-11.4-8.7c-2.6-2.3-5.3-3.1-8.8-3.1
					c-1.5,0-3-0.2-4.4-0.6l0.5-2.1c1.7,0.4,3.4,0.5,5.3,0.3c2.7-0.3,5,0,7.1,2.1c0.5,0.5,2.1,0.5,2.9,0c2-1.2,3.3-2.8,4-4.7l1.8,0.7
					c-0.5,1.4-1.2,2.7-2.1,3.9c-2,2.7-2.5,2.9,0.1,4.9c6.3,4.6,12.7,9.1,19.3,13.2c7.8,4.8,16.4,8.2,25.5,9.9
					c6.2,1.2,13-1.4,13.8-8.6c0.4-3.8,0.6-7.7,0.4-11.5c-0.6-7.2-1.5-14.4-2.4-21.5c-0.3-2.7-0.9-5.4-1.5-8.1
					c-1.4-6.1-2.6-12.2-4.3-18.2c-2.8-9.7-5.4-19.5-8.9-28.9c-2.4-6.5-7.2-10.8-13.7-11.8l0.5-2.1c0.4,0.1,0.7,0.2,1.1,0.2
					c6.3,1.2,10.7,5.4,13.4,11c1.3,2.7,3.2,4.4,5.4,6.3c17.3,15.1,34.8,30,51.7,45.6c23.7,21.9,46.3,45.1,68,69
					c8.6,9.5,16.6,19.5,22.3,31c5.7,11.5,2.8,22.2-7.9,29.2c-0.5-0.8-1-1.5-1.5-2.3c-6.2-9.5-12.3-19-18.6-28.4
					c-0.8-1.2-2.1-2.3-3.4-3c-5.3-2.7-10.9-4.6-16.9-4.7c-6.3-0.1-8.5,3.2-5.7,8.9c1.3,2.6,2.9,5,4.5,7.5c7.4,11.3,4.5,24.4-5,33.3
					c-8.2,7.6-18,11.3-29.2,11.7c-0.9,0-1.9,0-3.3,0c2.4,4.2,4.6,8,7,11.7c0.3,0.4,0.9,0.7,1.6,0.9l-0.7,2.2
					c-1.5-0.5-3.2-1.6-4.1-2.9c-2.4-3.8-4.1-8-6.6-11.8c-8.2-12.4-16.4-24.7-25-36.8c-4.2-5.9-8.8-11.7-13.8-16.9
					c-6.8-7.1-14.1-13.7-21.1-20.6c-2.2-2.1-4.8-2.7-7.6-2.2c-3,0.5-6.1,1.2-8.9,2.4c-8.3,3.4-13.8,9.6-17.2,17.8
					c-2.5,5.9-3.4,12-3,18.3c0.1,1.1,0.7,2.3,1.4,3.1c3.6,3.8,7.3,7.5,10.9,11.3c4,4.1,7.8,8.4,11.9,12.3
					c12.3,11.3,25.9,20.8,40.1,29.4c4.5,2.7,8.9,5.7,13.2,8.6l-1.3,2c-7.3-4.7-15-8.9-22.2-13.7c-8.8-5.9-17.7-11.8-25.6-18.7
					c-9.6-8.4-18.3-17.7-27.1-26.9c-2.8-2.9-5.9-4.1-9.8-4.3c-4.8-0.3-9.5-0.8-14.2-1.6c-3.4-0.6-6.8-1.9-10.6-2.9
					c0.3,0.7,0.4,1.1,0.6,1.5c3.6,5.8,7.1,11.5,10.7,17.2c8.6,13.8,20.6,24.2,33.9,33.3c11.2,7.6,23.6,13.1,35.7,18.9
					c5.8,2.8,11.5,5.7,17.2,8.6l-0.9,1.8c-0.6-0.3-1.1-0.6-1.7-0.8c-11.1-5.4-22.3-10.6-33.4-15.9c-1.8-0.8-3.5-1.9-5.3-2.7
					c-1.4-0.6-3.1-1.5-4.4-1.2c-3,0.7-6.2,1.9-7.5,4.9c-0.6,1.5-0.6,4.1,0.3,5.2c2.8,3.6,6.1,6.8,9.5,10c2.5,2.4,5.3,4.5,8,6.7
					c-0.1,0.3-0.2,0.6-0.2,0.9c-4.1-0.5-8.2-0.7-12.3-1.4c-10.7-2-19.3-7.8-26.7-15.5c-8.4-8.6-14.7-18.7-21.5-28.5
					c-12.1-17.4-21.3-36.3-29.1-56c-7.2-18.4-15.6-36.2-26.7-52.6c-4-5.9-8.9-10.9-14.2-15.5c-6.1-5.3-10.2-11.4-12.9-18.1l1.9-0.8
					c2.8,7.2,8.2,12.8,13.7,18.2c5,5,10.2,9.7,15.3,14.7c6.1,6.1,12.2,12.2,18.3,18.4c1.4,1.4,2.7,1.9,4.7,0.6
					c3.7-2.3,7.5-4.3,11.4-6.2c6.4-3.2,13-6.3,19.4-9.5c9.9-4.9,19.7-9.9,29.6-14.6C274.1,212.7,273.5,212,272.2,211z"/>
				<path class="st4" d="M69.2,25.6c0,4.1,0,8.2,4.6,10.3c-6-0.4-5.9-4.8-6.1-8.9c-6.5-1-6.5-1-8.8-4.6c5.3-1.9,10.6-3.8,15.8-5.6
					c0.2,0.3,0.3,0.6,0.5,0.8c-0.8,0.5-1.6,1.1-2.5,1.7c0.8,0.9,1.4,1.5,2,2.1c-0.1,0.1-0.1,0.2-0.2,0.3c-0.6-0.3-1.4-0.5-1.8-0.9
					c-2-1.9-3.9-1.4-6-0.2c-1.6,1-3.3,1.8-5.1,2.7C63.4,26.5,66.6,24.8,69.2,25.6z"/>
				<path class="st4" d="M116.9,52.8c7.8,4.6,14.4,10.3,17.3,19.3c1.4,4.3,2.1,8.8,2.9,13.3c0.3,1.5,0.7,2.4,2.2,3
					c15.8,6.9,31,14.9,45.2,24.9c0.7,0.5,1.9,0.5,2.7,0.3c4.4-1.3,8.8-2.9,13.2-4.1c1.8-0.5,2.6-1.2,2.8-3c0.2-2.2,0.6-4.4,1.2-6.6
					c0.4-1.6,0-2.4-1.5-3.2c-3.9-2-7-4.9-6.3-9.8c0.2-1.3,1.3-2.6,2.2-3.7c0.4-0.6,1.2-1,1.6-1.6c1.5-2.6,2.9-5.3,4.5-8.3
					c-0.5-1.1-0.8-1.7-0.9-2.3l1.3-0.1c0.7,1.3,1.3,2.3,1.9,3.3c-0.3-0.1-0.5-0.1-0.8-0.2c-1.6,2.8-3.2,5.6-4.9,8.4
					c-0.3,0.5-0.7,1-1.1,1.4c-3.2,2.7-3.4,6.7-0.2,9.5c1.2,1.1,2.6,2,4.1,2.7c1.8,0.8,2.1,1.8,1.6,3.6c-0.7,2.8-1.2,5.7-1.6,8.6
					c-0.5,3.9-0.9,7.9-1.3,12c2-0.2,3.4-0.4,4.9-0.4c4.9-0.1,9.8-0.2,14.7-0.2l0,1.4c-2.3,0-4.6,0.1-7,0.2
					c-6.9,0.4-13.8,1.4-20.6,2.4c-4.2,0.6-8.6,1.1-12.5,2.8c-14.4,6.1-24.5,16.1-26.1,32.6c-0.9,9.4-0.1,18.8,1.7,28.1
					c0.4,1.8,0.9,3.6,1.5,5.3l-1.9,0.8c-2.6-6.5-3.7-13.5-3.9-21c-0.1-3.8,0.1-7.5,0-11.3c0-1.3-0.2-2.8-0.8-3.9
					c-11-19.8-23.9-38.1-37.9-55.9c-13.2-16.7-25.3-34.2-37.9-51.2c-2.3-3.1-5-5.9-7.7-8.6c-2.2-2.2-4.7-4-5.4-7.3
					c-0.1-0.4-0.7-0.8-1.2-1.1c-1.6-0.9-3.4-1.6-4.7-2.8c-2.4-2.2-4.5-4.6-6.8-6.9c0-0.5,0-1,0-1.5c1.4-2.4,2.7-4.9,4.1-7.3
					c2.3-3.8,6.1-5.4,10.1-5.9c3.7-0.4,7.7,0,11.4,0.5c1.2,0.2,2.8,1.8,3.2,3.1c1.3,3.4,2.3,7,2.9,10.6c1.3,8.3,6.1,13.8,13.2,17.8
					C103.2,44.3,110,48.7,116.9,52.8z M72.9,9.4c-4.4-1.2-13.7,0.8-16.3,5.5c-1,1.9-2,3.7-3.1,5.6c-0.8,1.5-0.4,2.8,0.9,3.9
					c1.5,1.4,3,2.8,4.4,4.3c3.3,3.2,4.1,3.3,8,0.6c-1.7,2-2.2,4-0.8,6.1c0.8,1.2,1.8,2.3,2.8,3.3c2.2,2.3,4.6,4.3,6.8,6.6
					c3.1,3.3,3.4,3.4,6.8,0.5c0.7-0.5,1.3-1.2,1.8-1.8c3-3.6,3.3-6.9,1.2-11.1c-1.2-2.4-2.3-5-3-7.6c-1-3.4-1.7-7-2.6-10.5
					c-0.7-2.8-1.6-5.6-5.5-5C73.9,9.9,73.3,9.5,72.9,9.4z M132.5,75c-1.4-5.7-4-10.9-8.8-14.4c-4.4-3.3-9.4-5.8-14-8.8
					c-5.5-3.6-11-7.3-16.4-10.9c-1.4-0.9-2.8-1.7-4.4-2.7c-1,4.7-3.4,7.9-7,10.2c-0.6,0.4-0.8,1.7-0.7,2.5c0.1,0.9,0.7,1.7,1.3,2.5
					c9.1,12.2,18.1,24.4,27.2,36.5c4.6,6.1,9.3,12.3,14,18.3c4.5,5.8,9.2,11.5,13,17.8c4.6,7.5,9.4,14.8,14,22.3
					c1.1,1.7,2.1,3.4,3.1,5c1.4-3.4,2.3-6.8,4.1-9.7c4.6-7.7,10.8-13.8,18.7-18c1.2-0.6,2.2-1.8,2.9-3c1.2-2.2,2.2-4.6,3.4-7.3
					c0.1,0.2,0-0.1-0.1-0.1c-7.6-4.6-15.1-9.2-22.7-13.7c-1.5-0.9-3.2-1.4-4.7-2.2c-3.4-1.8-6.8-3.8-10.2-5.6
					c-2.7-1.4-5.6-2.4-8.3-3.9c-0.8-0.4-1.5-1.6-1.8-2.5C134.2,83.2,133.5,79,132.5,75z"/>
			</g>
			<g>
			</g>
		</g>
	</g>
</g>
</svg>
