<?xml version="1.0" encoding="utf-8"?>
<!-- Generator: Adobe Illustrator 22.0.0, SVG Export Plug-In . SVG Version: 6.00 Build 0)  -->
<svg version="1.1" xmlns="http://www.w3.org/2000/svg" xmlns:xlink="http://www.w3.org/1999/xlink" x="0px" y="0px"
	 viewBox="0 0 500 500" style="enable-background:new 0 0 500 500;" xml:space="preserve">
<style type="text/css">
	.st0{display:none;}
	.st1{display:inline;fill:#272727;}
	.st2{fill:#00B7DB;}
	.st3{fill:#FFD42C;}
	.st4{fill:#FBFBFB;}
	.st5{fill:#FFD32E;stroke:#FCFCFB;stroke-width:0.5048;stroke-miterlimit:10;}
</style>
<g id="Calque_3" class="st0">
	<rect class="st1" width="500" height="500"/>
</g>
<g id="Calque_1">
	<g>
		<g id="XMLID_1_">
			<g>
				<path class="st2" d="M373.7,381.8c0.3,0.2,0.3,0.7,0.6,1.3c-2.1,0.2-3.9,0.4-5.7,0.4c-2,0.1-2.8,1-2.5,2.9c0.1,0.3,0,0.7,0.1,1
					c1.3,4.7-0.1,4.3-4.2,3.7c-5.4-0.7-7.3-4.9-10-8.3c-3.1-3.9-7-6.7-11.2-9c-1.4-0.8-2.8-1.5-4.3-2.2c-5.7-3-11.4-5.8-17.2-8.6
					c-12.1-5.9-24.5-11.3-35.7-18.9c-13.3-9.1-25.3-19.5-33.9-33.3c-3.6-5.7-7.2-11.5-10.7-17.2c-0.2-0.3-0.3-0.8-0.6-1.5
					c3.8,1.1,7.1,2.3,10.6,2.9c4.7,0.8,9.5,1.3,14.2,1.6c3.9,0.2,6.9,1.4,9.8,4.3c8.8,9.2,17.6,18.5,27.1,26.9
					c7.9,6.9,16.9,12.8,25.6,18.7c7.2,4.9,14.8,9.1,22.2,13.7c3.4,2.2,6.3,5.5,10,7.1C365,370.5,368.4,377.1,373.7,381.8z"/>
				<path class="st2" d="M417.8,366.8c0.4,0.7,0.6,1.4,0.9,2.1c-0.9,0.3-1.8,0.9-2.7,0.9c-8.1-0.5-16.2-1.1-24.3-1.7
					c-2.4-0.2-3.2,0.8-3.1,3.1c0.2,3.4,0,6.8,0,10.5c-3.2-1-6.1-1.9-8.9-2.7c-0.6-0.2-1.5-0.5-1.9-0.2c-2.3,1.4-3.4-0.1-4.6-1.6
					c-1.3-1.7-2.9-3.1-4.2-4.8c-0.7-0.8-1-1.9-1.4-2.9c0.2-0.1,0.4-0.3,0.5-0.4c-2.1-1-4.4-1.8-6.4-2.9c-2.4-1.3-4.8-2.8-7.1-4.3
					c-1.8-1.1-3.5-2.3-5.3-3.4c-4.4-2.9-8.8-5.8-13.2-8.6c-14.3-8.6-27.9-18.1-40.1-29.4c-4.2-3.9-8-8.2-11.9-12.3
					c-3.7-3.8-7.4-7.5-10.9-11.3c-0.8-0.8-1.3-2.1-1.4-3.1c-0.5-6.3,0.5-12.5,3-18.3c3.4-8.2,8.9-14.4,17.2-17.8
					c2.8-1.1,5.9-1.8,8.9-2.4c2.8-0.5,5.4,0.1,7.6,2.2c7,6.9,14.3,13.4,21.1,20.6c5,5.3,9.6,11,13.8,16.9
					c8.6,12.1,16.8,24.4,25,36.8c2.5,3.8,4.2,8,6.6,11.8c0.8,1.3,2.5,2.4,4.1,2.9c8.9,2.9,18.5,3.8,26.6,8.9
					c4.4,2.7,8.7,5.7,11.5,10.4C417.1,366.1,417.6,366.4,417.8,366.8z"/>
				<path class="st2" d="M245.9,229.1c2.7,4.4,5.3,8.6,7.9,12.9c-11.3,5.9-22.5,11.6-33.9,17.6c-2.7-4.3-5.3-8.4-8.1-12.9
					C223.2,240.9,234.4,235.1,245.9,229.1z"/>
				<path class="st2" d="M276.6,214.2c2.9,4.2,5.7,8.3,8.7,12.6c-7.8,3.8-15.4,7.5-23.2,11.3c-2.6-4.2-5.2-8.3-8.1-12.9
					C261.5,221.5,268.9,217.9,276.6,214.2z"/>
				<path class="st2" d="M326.2,206.7c0.3,3.8,0,7.7-0.4,11.5c-0.7,7.1-7.6,9.7-13.8,8.6c-9.1-1.7-17.6-5.1-25.5-9.9
					c-6.6-4.1-13-8.6-19.3-13.2c-2.7-1.9-2.1-2.2-0.1-4.9c0.8-1.2,1.5-2.5,2.1-3.9h0c0.5-1.3,0.9-2.6,1.3-4c0.8-2.9,1.3-3.5,4.2-2.5
					c7.3,2.5,14.7,3.1,22.3,2.6c2.4-0.2,4.7-1,7.1-1.4c2.6-0.4,5.2-0.6,7.9-0.8c0.8-0.1,1.5,0,2.3-0.4c-2.9-2.2-6.1-2.7-9.6-2
					c-2.9,0.6-5.9,1.2-8.8,1.6c-1.3,0.2-2.6,0.2-3-1.9c-0.2-1.1-2-1.8-2.9-2.8c-6.3-7.5-12.5-15.1-18.6-22.8c-2-2.4-3.3-5.3-5.1-7.9
					c-1-1.4-0.6-2.3,0.5-3.3c3-2.6,5.9-5.2,8.9-7.7c1-0.8,2-1.6,3.2-2.6c-0.6-0.1-0.9-0.2-1.1-0.1c-6.6,3.6-12.8,7.7-18,13.1
					c-1.2,1.3-2.6,2.8-0.5,5.4c1.1-1.6,2-3,3.1-4.6c9.3,12.1,18.1,23.6,27.2,35.4c-1.8-0.1-3.6,0-5.3-0.4c-4.7-1.2-9.4-2.5-14-4
					c-2-0.7-3-1.8-1.8-4.5c2.5-5.3,1.5-7.9-3.1-11.5c-1.4-1.1-2.8-2.6-3.8-4.1c-1.8-2.7-3.9-3.7-6.6-2.1c-1.7,1-3.1,1.2-5,0.8
					c-3.6-0.7-5.6,0.9-6.7,4.3c-0.6,1.9-1.9,3.7-3.2,5.3c-3,3.6-3.6,7.9-3.5,12.3c0,1.9,0.2,3.8,0.4,5.6c0.4,3.9,3.3,5.8,6.4,7
					c1.3,0.6,2.8,1.1,4.2,1.4c1.5,0.4,3,0.6,4.4,0.6c3.5,0,6.2,0.8,8.8,3.1c3.6,3.1,7.6,5.8,11.4,8.7c1.3,1,1.9,1.7-0.3,2.8
					c-9.9,4.7-19.7,9.8-29.6,14.6c-6.4,3.2-13,6.3-19.4,9.5c-3.9,1.9-7.7,3.9-11.4,6.2c-2,1.3-3.3,0.8-4.7-0.6
					c-6.1-6.1-12.1-12.3-18.3-18.4c-5-5-10.3-9.7-15.3-14.7c-5.5-5.5-10.8-11.1-13.7-18.2c-0.7-1.7-1.2-3.4-1.5-5.3
					c-1.8-9.3-2.6-18.7-1.7-28.1c1.6-16.5,11.6-26.5,26.1-32.6c3.9-1.6,8.3-2.1,12.5-2.8c6.9-1,13.8-2,20.6-2.4
					c2.3-0.1,4.6-0.2,7-0.2c5.1-0.1,10.2,0.1,15.3,0.2c7.3,0.2,14.7,0.7,22,1.3c5.7,0.5,10.9-1.7,16.4-2.6
					c5.4-0.9,10.8-1.9,16.2-1.8c1,0,2,0.1,2.9,0.3c6.6,1.1,11.4,5.3,13.7,11.8c3.5,9.5,6.1,19.2,8.9,28.9c1.7,6,2.9,12.1,4.3,18.2
					c0.6,2.7,1.2,5.4,1.5,8.1C324.7,192.4,325.6,199.6,326.2,206.7z M261.7,140.9c1.7-3.3,2.3-6.6,1.1-9.1
					c-2.1,6.1-5.2,11.7-9.7,16.2c-4,4.1-8.2,8-12.6,11.6c-2.9,2.4-6,4.8-10.2,5c-3.5,0.2-7.1,0.6-10.6,1c-2.3,0.2-4.6,0.6-6.8,0.8
					c0,0.4,0,0.8,0,1.2c5.6,0,11.2,0.1,16.9-0.1c2-0.1,4.1-0.5,5.9-1.5c2.8-1.5,5.5-3.4,8-5.4C250.7,155,257.4,149.1,261.7,140.9z
					 M248.6,206.3c0-0.3,0.1-0.5,0.1-0.8c-0.4-0.2-0.8-0.5-1.3-0.7c-3-1-6.1-1.8-8.9-3.1c-7-3.2-13.9-6.7-20.9-9.8
					c-3.9-1.8-8.1-3-12.1-4.5c-0.1,0.3-0.3,0.6-0.4,0.9c0.6,0.4,1.2,0.9,1.8,1.2c6.6,3.3,13.1,6.7,19.7,9.9
					c6.1,3.1,12.4,5.9,19.2,6.9C246.8,206.4,247.7,206.3,248.6,206.3z M219.7,228.4c-11.4-11.6-22.9-22.6-29.6-38
					C188.5,199.5,210.4,227.5,219.7,228.4z M171.4,169.8c-4.2,0-8.3,0-13,0C163.2,172.6,170,172.6,171.4,169.8z"/>
				<path class="st2" d="M182.8,115.1c0.1,0.1,0.2,0.3,0.1,0.1c-1.2,2.7-2.2,5.1-3.4,7.3c-0.7,1.2-1.7,2.4-2.9,3
					c-8,4.2-14.2,10.3-18.7,18c-1.7,2.9-2.7,6.3-4.1,9.7c-1-1.6-2-3.3-3.1-5c-4.7-7.4-9.4-14.8-14-22.3c-3.9-6.3-8.5-12-13-17.8
					c-4.7-6-9.4-12.2-14-18.3c-9.1-12.2-18.2-24.3-27.2-36.5c-0.5-0.7-1.2-1.6-1.3-2.5c-0.1-0.8,0.1-2.1,0.7-2.5
					c3.6-2.3,6-5.5,7-10.2c1.6,1,3,1.8,4.4,2.7c5.5,3.6,10.9,7.4,16.4,10.9c4.6,3,9.6,5.5,14,8.8c4.8,3.5,7.4,8.7,8.8,14.4
					c1,4,1.6,8.2,2.6,12.2c0.2,0.9,0.9,2.1,1.8,2.5c2.7,1.4,5.6,2.5,8.3,3.9c3.5,1.8,6.8,3.8,10.2,5.6c1.5,0.8,3.2,1.3,4.7,2.2
					C167.7,105.9,175.2,110.5,182.8,115.1z"/>
				<path class="st3" d="M463.3,446c8.7,14,14.9,28.7,13.8,45.7c-0.2,2.7-0.5,4.8-3.4,5.7c-1.5,0-3.1,0-4.6,0
					c-8-3-13.2-9.3-18.3-15.6c-7-8.7-13.6-17.6-21-26c-9.6-10.9-21-19.9-32.6-28.7c-8.8-6.6-17.7-13-26.5-19.4
					c-6-4.4-11.4-9.4-15.2-15.9c-4.8-8.2-11.8-14-20-18.3l0.9-1.8c1.4,0.7,2.8,1.5,4.3,2.2c4.3,2.3,8.2,5,11.2,9
					c2.7,3.4,4.6,7.6,10,8.3c4.1,0.6,5.6,1,4.2-3.7c-0.1-0.3,0-0.7-0.1-1c-0.4-2,0.5-2.9,2.5-2.9c1.8-0.1,3.7-0.3,5.7-0.4
					c-0.3-0.6-0.3-1.1-0.6-1.3c-5.3-4.7-8.7-11.3-15.8-14.4c-3.7-1.6-6.6-4.9-10-7.1l1.3-2c1.7,1.2,3.5,2.3,5.3,3.4
					c2.3,1.5,4.7,3,7.1,4.3c2.1,1.1,4.3,2,6.4,2.9c-0.2,0.1-0.4,0.3-0.5,0.4c0.5,1,0.8,2.1,1.4,2.9c1.3,1.7,2.9,3.2,4.2,4.8
					c1.2,1.6,2.4,3,4.6,1.6c0.4-0.3,1.3,0,1.9,0.2c2.8,0.8,5.7,1.7,8.9,2.7c0-3.7,0.1-7.1,0-10.5c-0.1-2.3,0.7-3.3,3.1-3.1
					c8.1,0.6,16.2,1.2,24.3,1.7c0.9,0.1,1.8-0.6,2.7-0.9c-0.3-0.7-0.5-1.5-0.9-2.1c-0.2-0.4-0.7-0.8-1-1.2
					c-2.8-4.6-7.1-7.6-11.5-10.4c-8.1-5.1-17.7-6-26.6-8.9l0.7-2.2c0.2,0.1,0.4,0.1,0.6,0.2c4,1.1,7.9,2.2,12,3.1
					c15.5,3.4,26,13,33.5,26.6c6.9,12.5,11.4,25.8,16.2,39.1c3.6,10,7.2,20,10.9,30c0.3,0.9,0.8,1.7,1.2,2.6c0.8-0.6,1.5-1,2.1-1.4
					C459.1,442.5,461.4,442.9,463.3,446z"/>
				<path class="st3" d="M457.8,279.4c5.7,11.5,2.8,22.2-7.9,29.2c-0.5-0.8-1-1.5-1.5-2.3c-6.2-9.5-12.3-19-18.6-28.4
					c-0.8-1.2-2.1-2.3-3.4-3c-5.3-2.7-10.9-4.6-16.9-4.7c-6.3-0.1-8.5,3.2-5.7,8.9c1.3,2.6,2.9,5,4.5,7.5c7.4,11.3,4.5,24.4-5,33.3
					c-8.2,7.6-18,11.3-29.2,11.7c-0.9,0-1.9,0-3.3,0c2.4,4.2,4.6,8,7,11.7c0.3,0.4,0.9,0.7,1.6,0.9l-0.7,2.2
					c-1.5-0.5-3.2-1.6-4.1-2.9c-2.4-3.8-4.1-8-6.6-11.8c-8.2-12.4-16.4-24.7-25-36.8c-4.2-5.9-8.8-11.7-13.8-16.9
					c-6.8-7.1-14.1-13.7-21.1-20.6c-2.2-2.1-4.8-2.7-7.6-2.2c-3,0.5-6.1,1.2-8.9,2.4c-8.3,3.4-13.8,9.6-17.2,17.8
					c-2.5,5.9-3.4,12-3,18.3c0.1,1.1,0.7,2.3,1.4,3.1c3.6,3.8,7.3,7.5,10.9,11.3c4,4.1,7.8,8.4,11.9,12.3
					c12.3,11.3,25.9,20.8,40.1,29.4c4.5,2.7,8.9,5.7,13.2,8.6l-1.3,2c-7.3-4.7-15-8.9-22.2-13.7c-8.8-5.9-17.7-11.8-25.6-18.7
					c-9.6-8.4-18.3-17.7-27.1-26.9c-2.8-2.9-5.9-4.1-9.8-4.3c-4.8-0.3-9.5-0.8-14.2-1.6c-3.4-0.6-6.8-1.9-10.6-2.9
					c0.3,0.7,0.4,1.1,0.6,1.5c3.6,5.8,7.1,11.5,10.7,17.2c8.6,13.8,20.6,24.2,33.9,33.3c11.2,7.6,23.6,13.1,35.7,18.9
					c5.8,2.8,11.5,5.7,17.2,8.6l-0.9,1.8c-0.6-0.3-1.1-0.6-1.7-0.8c-11.1-5.4-22.3-10.6-33.4-15.9c-1.8-0.8-3.5-1.9-5.3-2.7
					c-1.4-0.6-3.1-1.5-4.4-1.2c-3,0.7-6.2,1.9-7.5,4.9c-0.6,1.5-0.6,4.1,0.3,5.2c2.8,3.6,6.1,6.8,9.5,10c2.5,2.4,5.3,4.5,8,6.7
					c-0.1,0.3-0.2,0.6-0.2,0.9c-4.1-0.5-8.2-0.7-12.3-1.4c-10.7-2-19.3-7.8-26.7-15.5c-8.4-8.6-14.7-18.7-21.5-28.5
					c-12.1-17.4-21.3-36.3-29.1-56c-7.2-18.4-15.6-36.2-26.7-52.6c-4-5.9-8.9-10.9-14.2-15.5c-6.1-5.3-10.2-11.4-12.9-18.1l1.9-0.8
					c2.8,7.2,8.2,12.8,13.7,18.2c5,5,10.2,9.7,15.3,14.7c6.1,6.1,12.2,12.2,18.3,18.4c1.4,1.4,2.7,1.9,4.7,0.6
					c3.7-2.3,7.5-4.3,11.4-6.2c6.4-3.2,13-6.3,19.4-9.5c9.9-4.9,19.7-9.9,29.6-14.6c2.2-1.1,1.6-1.8,0.3-2.8
					c-3.8-2.9-7.8-5.6-11.4-8.7c-2.6-2.3-5.3-3.1-8.8-3.1c-1.5,0-3-0.2-4.4-0.6l0.5-2.1c1.7,0.4,3.4,0.5,5.3,0.3
					c2.7-0.3,5,0,7.1,2.1c0.5,0.5,2.1,0.5,2.9,0c2-1.2,3.3-2.8,4-4.7l1.8,0.7c-0.5,1.4-1.2,2.7-2.1,3.9c-2,2.7-2.5,2.9,0.1,4.9
					c6.3,4.6,12.7,9.1,19.3,13.2c7.8,4.8,16.4,8.2,25.5,9.9c6.2,1.2,13-1.4,13.8-8.6c0.4-3.8,0.6-7.7,0.4-11.5
					c-0.6-7.2-1.5-14.4-2.4-21.5c-0.3-2.7-0.9-5.4-1.5-8.1c-1.4-6.1-2.6-12.2-4.3-18.2c-2.8-9.7-5.4-19.5-8.9-28.9
					c-2.4-6.5-7.2-10.8-13.7-11.8l0.5-2.1c0.4,0.1,0.7,0.2,1.1,0.2c6.3,1.2,10.7,5.4,13.4,11c1.3,2.7,3.2,4.4,5.4,6.3
					c17.3,15.1,34.8,30,51.7,45.6c23.7,21.9,46.3,45.1,68,69C444.1,257.8,452.1,267.8,457.8,279.4z M285.2,226.8
					c-3-4.3-5.8-8.4-8.7-12.6c-7.6,3.7-15.1,7.4-22.7,11.1c2.9,4.6,5.5,8.7,8.1,12.9C269.8,234.3,277.4,230.6,285.2,226.8z
					 M253.8,242.1c-2.7-4.4-5.3-8.6-7.9-12.9c-11.5,5.9-22.7,11.7-34,17.6c2.8,4.5,5.4,8.6,8.1,12.9
					C231.4,253.7,242.5,247.9,253.8,242.1z"/>
				<path class="st3" d="M314.3,188.4c-0.8,0.4-1.6,0.3-2.3,0.4c-2.6,0.3-5.3,0.4-7.9,0.8c-2.4,0.4-4.7,1.2-7.1,1.4
					c-7.6,0.6-15.1-0.1-22.3-2.6c-2.9-1-3.4-0.4-4.2,2.5c-0.4,1.3-0.8,2.7-1.3,4h0l-1.8-0.7c0.8-1.9,1-3.9,1.1-6.1
					c0.1-1.6-0.3-2.8-1.8-3.6c-2-1-2.4-2.4-1-4.3c0.4-0.5,0.6-1.2,0.8-1.9c2.1-4.9,0.5-7.4-4.9-7.9c-1.9-0.2-4-0.3-5.3-2.4
					c2,0.3,3.7,0.6,6,1c-1.2-1.6-2.3-2.6-2.8-3.8c-0.9-2.3-2.7-2.2-3.8-1.1c-1.8,1.7-3.6,1.3-5.6,0.9c-1.6-0.3-3.9-0.7-4.3,1.5
					c-0.5,2.7-1.8,4.7-3.5,6.7c-4.6,5.3-3.8,11.6-2.7,17.8c0.1,0.8,0.9,1.7,1.5,2.2c2.2,1.6,4.5,2.8,6.9,3.4l-0.5,2.1
					c-1.4-0.4-2.9-0.9-4.2-1.4c-3.1-1.3-6-3.2-6.4-7c-0.2-1.9-0.4-3.7-0.4-5.6c-0.1-4.4,0.5-8.7,3.5-12.3c1.3-1.6,2.6-3.4,3.2-5.3
					c1.1-3.4,3-5,6.7-4.3c1.9,0.4,3.3,0.2,5-0.8c2.8-1.6,4.9-0.6,6.6,2.1c1,1.6,2.4,3,3.8,4.1c4.6,3.6,5.5,6.2,3.1,11.5
					c-1.2,2.6-0.2,3.8,1.8,4.5c4.6,1.5,9.3,2.8,14,4c1.7,0.4,3.5,0.3,5.3,0.4c-9-11.7-17.9-23.2-27.2-35.4c-1,1.6-2,3-3.1,4.6
					c-2.1-2.6-0.6-4.2,0.5-5.4c5.2-5.5,11.4-9.6,18-13.1c0.2-0.1,0.4,0,1.1,0.1c-1.3,1-2.3,1.8-3.2,2.6c-3,2.6-5.9,5.2-8.9,7.7
					c-1.1,1-1.5,1.9-0.5,3.3c1.8,2.6,3.2,5.5,5.1,7.9c6.1,7.7,12.4,15.2,18.6,22.8c0.9,1,2.7,1.7,2.9,2.8c0.4,2.1,1.7,2.1,3,1.9
					c3-0.4,5.9-1,8.8-1.6C308.2,185.7,311.4,186.3,314.3,188.4z"/>
				<path class="st3" d="M295.9,116.1l-0.5,2.1c-0.9-0.2-1.9-0.2-2.9-0.3c-5.4-0.1-10.9,0.9-16.2,1.8c-5.5,0.9-10.7,3-16.4,2.6
					c-7.3-0.6-14.7-1.1-22-1.3c-5.1-0.2-10.2-0.3-15.3-0.2l0-1.4c6.9-0.1,13.8-0.2,20.7-0.4c0.9,0,2.1-0.3,2.7-1
					c2.1-2,3.9-4.3,5.7-6.3c-1.1-2.5-2.2-5.1-3.3-7.6l1.2-0.5c1,2.4,2.3,4.8,3.6,7.2c3.8-1.9,7.4-1.5,11.1-0.2
					c0.5,0.2,1.2,0,1.7-0.2c6.3-2.7,12.5-1.7,18.4,1.2C288.1,113.5,291.8,115.2,295.9,116.1z"/>
				<path class="st4" d="M266.7,184.5c1.5,0.8,1.9,2,1.8,3.6c-0.1,2.2-0.4,4.3-1.1,6.1c-0.8,1.8-2,3.5-4,4.7c-0.7,0.4-2.4,0.5-2.9,0
					c-2.1-2-4.4-2.3-7.1-2.1c-1.9,0.2-3.6,0.1-5.3-0.3c-2.5-0.6-4.8-1.8-6.9-3.4c-0.7-0.5-1.4-1.4-1.5-2.2
					c-1.1-6.2-1.9-12.5,2.7-17.8c1.8-2,3.1-3.9,3.5-6.7c0.4-2.3,2.6-1.8,4.3-1.5c2,0.4,3.7,0.8,5.6-0.9c1.2-1.1,2.9-1.2,3.8,1.1
					c0.5,1.2,1.6,2.2,2.8,3.8c-2.2-0.4-4-0.6-6-1c1.3,2.2,3.4,2.3,5.3,2.4c5.4,0.4,6.9,2.9,4.9,7.9c-0.3,0.6-0.4,1.3-0.8,1.9
					C264.3,182.1,264.7,183.5,266.7,184.5z M245.2,180.6c2.3-2.6,5.4-4.7,4.3-9.1c-0.4,0.2-1.4,0.5-1.4,0.8c0.4,3.5-2.4,4.9-4.2,6.9
					c-1.9,2.1-2.9,4.3-2.1,7.1C243,184.3,243.8,182.2,245.2,180.6z"/>
				<path class="st3" d="M262.8,131.8c1.1,2.5,0.6,5.8-1.1,9.1c-4.3,8.2-11,14.1-18.1,19.7c-2.5,2-5.2,3.9-8,5.4
					c-1.7,0.9-3.9,1.4-5.9,1.5c-5.6,0.2-11.2,0.1-16.9,0.1c0-0.4,0-0.8,0-1.2c2.3-0.3,4.6-0.6,6.8-0.8c3.5-0.4,7.1-0.8,10.6-1
					c4.2-0.2,7.3-2.5,10.2-5c4.4-3.7,8.6-7.6,12.6-11.6C257.6,143.5,260.7,137.9,262.8,131.8z"/>
				<path class="st3" d="M249.6,171.5c1.1,4.4-2,6.5-4.3,9.1c-1.4,1.6-2.2,3.7-3.3,5.6c-0.9-2.8,0.1-5,2.1-7.1
					c1.8-2,4.7-3.4,4.2-6.9C248.1,172.1,249.2,171.7,249.6,171.5z"/>
				<path class="st3" d="M249.6,103.7l-1.2,0.5c-0.7-1.5-1.3-3-2-4.5c-2-4.4-4-8.7-6-13.1c-0.7,0.3-1.4,0.8-2,0.8
					c-3.2,0.1-4.6,2.1-5.9,4.7c-1.4,3-4.2,4.3-7.4,4.3c-4.1,0-8.2-0.2-12.3-0.6c-2.1-0.3-4.1-1.4-6.1-2.1c5.7,0.1,11.2,0.6,16.8,1
					c3.9,0.3,6.9-1.2,8.3-5c0.8-2.1,2-2.9,4.3-3.1c4.5-0.4,7.3-4.3,6.5-8.7c-0.5-3-2.5-3.8-4.9-1.9c-0.8,0.7-1.7,1.3-2.9,2.3
					c0-1.8,0.2-3.1,0-4.3c-0.6-3.3-0.7-6.5,1.4-9.4c0.3-0.4,0.1-1.4-0.2-1.7c-3.1-2.9-6.8-4.5-11.3-5c0.2,2.9-1.9,3.2-3.9,3.4
					c0.1,0.7,0.3,1.3,0.4,1.8c-0.2,0.1-0.3,0.3-0.5,0.5c-1.1-0.8-2.3-1.6-3.4-2.3c1-0.9,2-1.9,3.6-3.4c-4.2,1-7.4,2.3-10,5
					c-0.4,0.5-0.8,1.4-0.7,2c0.3,2-0.8,3.1-2.2,4c-0.9,0.7-1.9,1.3-2.9,2l-1.3,0.1c-0.1-1,0.7-1.5,2.9-2.9c1.3-0.8,2-1.7,2-3.5
					c0-1.2,1.1-2.5,2-3.6c0.8-0.9,2-1.6,2.4-1.9c-0.5-2.5-1.5-4.7-1.3-6.8c0.4-3.8,3.4-5.8,7-4.9c3.3,0.8,6.4,2.3,9.4,3.8
					c3.3,1.7,6.5,3.8,9.7,5.7c1.6,0.9,3.2,1.7,4.7,2.6c2.4,1.5,4,3.6,4.1,6.5c0.1,7.7,0.5,15.4,0,23.1
					C246.5,94.5,247.7,99.2,249.6,103.7z"/>
				<path class="st4" d="M248.5,104.3c1.1,2.5,2.2,5,3.3,7.6c-1.8,2.1-3.7,4.3-5.7,6.3c-0.6,0.6-1.8,0.9-2.7,1
					c-6.9,0.1-13.8,0.3-20.7,0.4c-4.9,0.1-9.8,0.2-14.7,0.2c-1.5,0-2.9,0.2-4.9,0.4c0.4-4.1,0.8-8.1,1.3-12c0.4-2.9,0.8-5.8,1.6-8.6
					c0.5-1.8,0.2-2.8-1.6-3.6c-1.5-0.6-2.8-1.6-4.1-2.7c-3.2-2.8-3.1-6.8,0.2-9.5c0.4-0.4,0.8-0.9,1.1-1.4c1.6-2.8,3.3-5.6,4.9-8.4
					c0.3,0.1,0.5,0.1,0.8,0.2c-0.6-1-1.2-2-1.9-3.3c0.9-0.6,1.9-1.3,2.9-2c1.4-1,2.5-2.1,2.2-4c-0.1-0.6,0.2-1.5,0.7-2
					c2.5-2.7,5.8-4,10-5c-1.6,1.5-2.6,2.5-3.6,3.4c1.1,0.8,2.3,1.5,3.4,2.3c0.2-0.2,0.3-0.3,0.5-0.5c-0.1-0.5-0.2-1.1-0.4-1.8
					c2-0.2,4.1-0.5,3.9-3.4c4.5,0.5,8.2,2.1,11.3,5c0.3,0.3,0.5,1.4,0.2,1.7c-2.1,2.9-1.9,6.1-1.4,9.4c0.2,1.2,0,2.5,0,4.3
					c1.2-1,2-1.6,2.9-2.3c2.4-1.9,4.4-1.1,4.9,1.9c0.7,4.4-2,8.4-6.5,8.7c-2.3,0.2-3.5,1-4.3,3.1c-1.4,3.9-4.4,5.3-8.3,5
					c-5.5-0.4-11-0.8-16.8-1c2,0.7,4,1.9,6.1,2.1c4.1,0.5,8.2,0.6,12.3,0.6c3.2,0,6-1.3,7.4-4.3c1.3-2.6,2.6-4.7,5.9-4.7
					c0.6,0,1.3-0.5,2-0.8c2,4.3,4.1,8.7,6,13.1C247.1,101.3,247.8,102.8,248.5,104.3z M227.1,102.2c-0.2-0.2-0.4-0.4-0.6-0.7
					c-4.3,4.2-8.6,8.4-12.8,12.7c0.4,0.4,0.7,0.7,1.1,1.1C218.8,110.9,223,106.5,227.1,102.2z M224.4,66.2c-3.4-2.5-6.8-0.9-9.9-1.6
					c0,0.3-0.1,0.6-0.1,1C217.5,65.7,220.6,65.9,224.4,66.2z"/>
				<path class="st3" d="M248.7,205.5c0,0.3-0.1,0.5-0.1,0.8c-0.9,0-1.9,0.1-2.8,0c-6.9-1-13.1-3.9-19.2-6.9
					c-6.6-3.3-13.1-6.6-19.7-9.9c-0.6-0.3-1.2-0.8-1.8-1.2c0.1-0.3,0.3-0.6,0.4-0.9c4,1.5,8.2,2.8,12.1,4.5c7,3.1,13.9,6.7,20.9,9.8
					c2.9,1.3,6,2.1,8.9,3.1C247.9,205,248.3,205.3,248.7,205.5z"/>
				<path class="st3" d="M226.5,101.5c0.2,0.2,0.4,0.4,0.6,0.7c-4.1,4.4-8.3,8.7-12.4,13.1c-0.3-0.4-0.7-0.7-1.1-1.1
					C217.9,109.9,222.2,105.7,226.5,101.5z"/>
				<path class="st3" d="M222.6,119.5l0,1.4c-2.3,0-4.6,0.1-7,0.2c-6.9,0.4-13.8,1.4-20.6,2.4c-4.2,0.6-8.6,1.1-12.5,2.8
					c-14.4,6.1-24.5,16.1-26.1,32.6c-0.9,9.4-0.1,18.8,1.7,28.1c0.4,1.8,0.9,3.6,1.5,5.3l-1.9,0.8c-2.6-6.5-3.7-13.5-3.9-21
					c-0.1-3.8,0.1-7.5,0-11.3c0-1.3-0.2-2.8-0.8-3.9c-11-19.8-23.9-38.1-37.9-55.9c-13.2-16.7-25.3-34.2-37.9-51.2
					c-2.3-3.1-5-5.9-7.7-8.6c-2.2-2.2-4.7-4-5.4-7.3c-0.1-0.4-0.7-0.8-1.2-1.1c-1.6-0.9-3.4-1.6-4.7-2.8c-2.4-2.2-4.5-4.6-6.8-6.9
					c0-0.5,0-1,0-1.5c1.4-2.4,2.7-4.9,4.1-7.3c2.3-3.8,6.1-5.4,10.1-5.9c3.7-0.4,7.7,0,11.4,0.5c1.2,0.2,2.8,1.8,3.2,3.1
					c1.3,3.4,2.3,7,2.9,10.6c1.3,8.3,6.1,13.8,13.2,17.8c7,4,13.8,8.4,20.7,12.5c7.8,4.6,14.4,10.3,17.3,19.3
					c1.4,4.3,2.1,8.8,2.9,13.3c0.3,1.5,0.7,2.4,2.2,3c15.8,6.9,31,14.9,45.2,24.9c0.7,0.5,1.9,0.5,2.7,0.3c4.4-1.3,8.8-2.9,13.2-4.1
					c1.8-0.5,2.6-1.2,2.8-3c0.2-2.2,0.6-4.4,1.2-6.6c0.4-1.6,0-2.4-1.5-3.2c-3.9-2-7-4.9-6.3-9.8c0.2-1.3,1.3-2.6,2.2-3.7
					c0.4-0.6,1.2-1,1.6-1.6c1.5-2.6,2.9-5.3,4.5-8.3c-0.5-1.1-0.8-1.7-0.9-2.3l1.3-0.1c0.7,1.3,1.3,2.3,1.9,3.3
					c-0.3-0.1-0.5-0.1-0.8-0.2c-1.6,2.8-3.2,5.6-4.9,8.4c-0.3,0.5-0.7,1-1.1,1.4c-3.2,2.7-3.4,6.7-0.2,9.5c1.2,1.1,2.6,2,4.1,2.7
					c1.8,0.8,2.1,1.8,1.6,3.6c-0.7,2.8-1.2,5.7-1.6,8.6c-0.5,3.9-0.9,7.9-1.3,12c2-0.2,3.4-0.4,4.9-0.4
					C212.8,119.6,217.7,119.5,222.6,119.5z M182.9,115.3c0.1,0.2,0-0.1-0.1-0.1c-7.6-4.6-15.1-9.2-22.7-13.7
					c-1.5-0.9-3.2-1.4-4.7-2.2c-3.4-1.8-6.8-3.8-10.2-5.6c-2.7-1.4-5.6-2.4-8.3-3.9c-0.8-0.4-1.5-1.6-1.8-2.5
					c-1-4.1-1.6-8.2-2.6-12.2c-1.4-5.7-4-10.9-8.8-14.4c-4.4-3.3-9.4-5.8-14-8.8c-5.5-3.6-11-7.3-16.4-10.9
					c-1.4-0.9-2.8-1.7-4.4-2.7c-1,4.7-3.4,7.9-7,10.2c-0.6,0.4-0.8,1.7-0.7,2.5c0.1,0.9,0.7,1.7,1.3,2.5
					c9.1,12.2,18.1,24.4,27.2,36.5c4.6,6.1,9.3,12.3,14,18.3c4.5,5.8,9.2,11.5,13,17.8c4.6,7.5,9.4,14.8,14,22.3
					c1.1,1.7,2.1,3.4,3.1,5c1.4-3.4,2.3-6.8,4.1-9.7c4.6-7.7,10.8-13.8,18.7-18c1.2-0.6,2.2-1.8,2.9-3
					C180.7,120.3,181.6,117.9,182.9,115.3z M84.2,43.9c3-3.6,3.3-6.9,1.2-11.1c-1.2-2.4-2.3-5-3-7.6c-1-3.4-1.7-7-2.6-10.5
					c-0.7-2.8-1.6-5.6-5.5-5c-0.4,0.1-1-0.4-1.4-0.5c-4.4-1.2-13.7,0.8-16.3,5.5c-1,1.9-2,3.7-3.1,5.6c-0.8,1.5-0.4,2.8,0.9,3.9
					c1.5,1.4,3,2.8,4.4,4.3c3.3,3.2,4.1,3.3,8,0.6c-1.7,2-2.2,4-0.8,6.1c0.8,1.2,1.8,2.3,2.8,3.3c2.2,2.3,4.6,4.3,6.8,6.6
					c3.1,3.3,3.4,3.4,6.8,0.5C83.1,45.2,83.7,44.6,84.2,43.9z"/>
				<path class="st3" d="M214.4,64.6c3.1,0.7,6.5-0.9,9.9,1.6c-3.8-0.2-6.9-0.5-10-0.7C214.4,65.2,214.4,64.9,214.4,64.6z"/>
				<path class="st3" d="M190.1,190.4c6.7,15.4,18.2,26.4,29.6,38C210.4,227.5,188.5,199.5,190.1,190.4z"/>
				<path class="st3" d="M158.4,169.8c4.6,0,8.7,0,13,0C170,172.6,163.2,172.6,158.4,169.8z"/>
				<path class="st4" d="M85.4,32.9c2.1,4.1,1.8,7.4-1.2,11.1c-0.6,0.7-1.1,1.3-1.8,1.8c-3.5,2.9-3.8,2.8-6.8-0.5
					c-2.1-2.3-4.5-4.4-6.8-6.6c-1-1-2-2.1-2.8-3.3c-1.5-2.1-0.9-4.1,0.8-6.1c-4,2.7-4.8,2.6-8-0.6c-1.5-1.4-2.9-2.9-4.4-4.3
					c-1.2-1.1-1.7-2.3-0.9-3.9c1-1.9,2-3.8,3.1-5.6c2.6-4.7,11.9-6.7,16.3-5.5c0.5,0.1,1,0.6,1.4,0.5c3.9-0.6,4.8,2.1,5.5,5
					c0.9,3.5,1.5,7,2.6,10.5C83.2,27.9,84.2,30.4,85.4,32.9z M75.3,17.6c-0.2-0.3-0.3-0.6-0.5-0.8c-5.2,1.9-10.5,3.7-15.8,5.6
					c2.3,3.6,2.3,3.6,8.8,4.6c0.2,4.1,0.1,8.5,6.1,8.9c-4.6-2.1-4.7-6.2-4.6-10.3c-2.7-0.8-5.8,0.9-7.7-2.1c1.8-1,3.5-1.8,5.1-2.7
					c2.1-1.3,4-1.8,6,0.2c0.5,0.5,1.2,0.6,1.8,0.9c0.1-0.1,0.1-0.2,0.2-0.3c-0.6-0.6-1.1-1.2-2-2.1C73.6,18.7,74.4,18.2,75.3,17.6z"
					/>
				<path class="st3" d="M74.8,16.8c0.2,0.3,0.3,0.6,0.5,0.8c-0.8,0.5-1.6,1.1-2.5,1.7c0.8,0.9,1.4,1.5,2,2.1
					c-0.1,0.1-0.1,0.2-0.2,0.3c-0.6-0.3-1.4-0.5-1.8-0.9c-2-1.9-3.9-1.4-6-0.2c-1.6,1-3.3,1.8-5.1,2.7c1.9,3,5.1,1.3,7.7,2.1
					c0,4.1,0,8.2,4.6,10.3c-6-0.4-5.9-4.8-6.1-8.9c-6.5-1-6.5-1-8.8-4.6C64.3,20.5,69.5,18.6,74.8,16.8z"/>
			</g>
			<g>
			</g>
		</g>
	</g>
</g>
<g id="Calque_2">
	<g>
		<path class="st5" d="M215.7,157c-0.9,1.2-1.8,2.2-2.7,3c-1,0.8-1.9,1.4-2.9,1.8c-1,0.4-1.9,0.6-2.8,0.6c-0.9,0-1.7-0.2-2.5-0.6
			c-0.8-0.4-1.4-1-2-1.9c-0.6-0.8-1-1.8-1.3-3c-0.3-1.2-0.5-2.6-0.5-4.2c0-2.8,0.4-5.5,1.1-8.2c0.8-2.7,1.8-5.1,3.2-7.3
			c1.4-2.1,3-3.9,4.9-5.2c1.9-1.3,4-2,6.3-2c0.7,0,1.4,0.1,2,0.4c0.6,0.3,1.2,0.7,1.7,1.2c0.5,0.5,0.8,1.2,1.1,1.9
			c0.3,0.8,0.4,1.6,0.4,2.6c0,0.2,0,0.4,0,0.6c0,0.2,0,0.4,0,0.6l-5.8,1.5c-0.4-0.7-0.8-1.1-1.2-1.1c-0.5,0-1,0.3-1.5,0.8
			c-0.5,0.5-1,1.3-1.5,2.1c-0.5,0.9-1,1.8-1.5,2.9c-0.5,1.1-0.9,2.2-1.2,3.2c-0.4,1.1-0.6,2.1-0.9,3.1c-0.2,1-0.3,1.8-0.3,2.4
			c0,0.9,0.1,1.6,0.4,2c0.2,0.4,0.6,0.6,1,0.6c0.3,0,0.7-0.1,1.1-0.4c0.4-0.2,0.8-0.6,1.1-1c0.4-0.4,0.7-0.8,1-1.3
			c0.3-0.5,0.5-1,0.6-1.5l5,2C217.3,154.4,216.5,155.8,215.7,157z"/>
	</g>
	<g>
		<path class="st5" d="M205.4,155.8c-0.6,1.3-1.4,2.5-2.5,3.5c-1,1-2.3,1.7-3.7,2.3c-1.4,0.5-2.9,0.8-4.6,0.8
			c-1.1,0-2.3-0.3-3.4-0.9c-1.1-0.6-2.2-1.6-3.3-3l3.2-6.4c0.2,0.4,0.5,0.8,0.9,1.2c0.4,0.4,0.8,0.7,1.3,1c0.5,0.3,1,0.5,1.5,0.7
			c0.5,0.2,0.9,0.3,1.3,0.3c0.3,0,0.7-0.1,1.1-0.2c0.4-0.1,0.7-0.3,1-0.5c0.3-0.2,0.6-0.5,0.7-0.8c0.2-0.3,0.3-0.7,0.3-1.1
			c0-0.7-0.2-1.4-0.7-2c-0.4-0.6-1-1.2-1.6-1.7c-0.7-0.5-1.4-1.1-2.1-1.7c-0.8-0.6-1.5-1.1-2.1-1.8c-0.6-0.6-1.2-1.3-1.6-2.1
			c-0.5-0.8-0.7-1.6-0.7-2.6c0-1.5,0.4-3,1.3-4.3c0.9-1.3,2-2.5,3.3-3.4c1.3-1,2.8-1.7,4.3-2.3c1.6-0.6,3.1-0.8,4.5-0.8
			c0.8,0,1.5,0.1,2.2,0.3c0.7,0.2,1.3,0.5,1.8,0.9c0.5,0.4,0.9,1,1.2,1.6c0.3,0.6,0.4,1.5,0.4,2.4c0,0.4,0,0.8-0.1,1.2
			c-0.1,0.4-0.1,0.9-0.2,1.3l-6.2,1.9c0.1-0.2,0.1-0.5,0.1-0.7c0-0.2,0.1-0.5,0.1-0.7c0-0.9-0.1-1.5-0.4-1.9s-0.7-0.6-1.2-0.6
			c-0.2,0-0.5,0.1-0.8,0.3c-0.3,0.2-0.7,0.4-1,0.7c-0.3,0.3-0.6,0.6-0.8,1c-0.2,0.4-0.3,0.8-0.3,1.2c0,0.7,0.2,1.3,0.6,1.8
			c0.4,0.5,0.9,0.9,1.4,1.3c0.6,0.4,1.2,0.8,1.9,1.3c0.7,0.4,1.3,1,1.9,1.7c0.6,0.7,1,1.5,1.4,2.5c0.4,1,0.6,2.3,0.6,3.9
			C206.3,153,206,154.5,205.4,155.8z"/>
	</g>
</g>
</svg>
