<?xml version="1.0" encoding="utf-8"?>
<!-- Generator: Adobe Illustrator 22.0.0, SVG Export Plug-In . SVG Version: 6.00 Build 0)  -->
<svg version="1.1" id="Calque_2" xmlns="http://www.w3.org/2000/svg" xmlns:xlink="http://www.w3.org/1999/xlink" x="0px" y="0px"
	 viewBox="0 0 500 500" style="enable-background:new 0 0 500 500;" xml:space="preserve">
<style type="text/css">
	.st0{display:none;fill:#272727;stroke:#FCFCFC;stroke-width:2;stroke-miterlimit:10;}
	.st1{fill:#00B7DB;stroke:#FFD430;stroke-width:10;stroke-miterlimit:10;}
	.st2{fill:#FFD42E;stroke:#FCFCFC;stroke-width:4;stroke-miterlimit:10;}
</style>
<rect class="st0" width="500" height="500"/>
<circle class="st1" cx="250" cy="250" r="195"/>
<g>
	<path class="st2" d="M330.9,325.3c-6.9,9.5-14.1,17.4-21.7,23.8c-7.6,6.4-15.2,11.1-22.9,14.2c-7.7,3-15.2,4.5-22.4,4.5
		c-7.2,0-13.8-1.6-19.8-4.9c-5.9-3.3-11.1-8.2-15.6-14.7c-4.4-6.5-8-14.6-10.7-24.1c-2.7-9.6-4-20.8-4-33.6c0-21.9,3-43.6,9.1-64.9
		c6.1-21.3,14.6-40.5,25.5-57.6c11-17,24-30.7,39-41.1c15-10.4,31.7-15.6,49.9-15.6c5.6,0,11,1.2,16.1,3.5c5.1,2.3,9.6,5.6,13.3,9.8
		c3.7,4.2,6.7,9.3,8.9,15.4c2.2,6.1,3.3,12.8,3.3,20.3c0,1.4,0,2.9,0,4.4c0,1.5-0.1,3.1-0.3,4.7l-45.8,12.3
		c-2.8-5.8-6.1-8.8-9.8-8.8c-3.7,0-7.6,2.2-11.7,6.5c-4.1,4.3-8.1,9.9-12.1,16.8c-4,6.9-7.8,14.6-11.5,23.1
		c-3.7,8.5-7,17.1-9.8,25.7c-2.8,8.6-5.1,16.9-6.8,24.7c-1.8,7.8-2.6,14.2-2.6,19.1c0,7.5,1,12.7,3,15.8c2,3,4.6,4.5,7.9,4.5
		c2.6,0,5.5-1,8.8-3c3.3-2,6.3-4.5,9.1-7.7c2.8-3.1,5.4-6.7,7.7-10.7c2.3-4,4-7.9,4.9-11.9l39.9,16.1
		C344,304.8,337.8,315.9,330.9,325.3z"/>
</g>
<g>
	<path class="st2" d="M249.3,316.3c-4.9,10.6-11.4,19.8-19.7,27.5c-8.3,7.7-18,13.7-29.2,17.9c-11.2,4.2-23.2,6.3-36.1,6.3
		c-9.1,0-18.1-2.5-27.2-7.5c-9.1-5-17.8-13-26.1-24l25.1-50.8c1.6,3,4,6.1,7.1,9.3c3.2,3.2,6.7,5.9,10.7,8.2c4,2.3,7.9,4.3,11.9,5.8
		c4,1.5,7.5,2.3,10.7,2.3c2.7,0,5.5-0.5,8.5-1.4c2.9-0.9,5.7-2.3,8.1-4.2c2.5-1.9,4.5-4,5.9-6.5c1.5-2.5,2.2-5.3,2.2-8.6
		c0-5.6-1.8-10.8-5.3-15.6c-3.5-4.8-7.9-9.3-13.1-13.6c-5.2-4.3-10.9-8.7-17-13.1c-6.1-4.4-11.7-9.1-16.8-14
		c-5.1-4.9-9.5-10.4-13.1-16.5c-3.6-6.1-5.4-12.8-5.4-20.3c0-12.1,3.5-23.5,10.5-34c7-10.5,15.8-19.5,26.3-27.1
		c10.5-7.6,22-13.6,34.5-18c12.4-4.4,24.2-6.6,35.3-6.6c6.1,0,11.9,0.8,17.3,2.3c5.4,1.5,10.1,4,14.1,7.4c4,3.4,7.1,7.6,9.5,12.8
		c2.4,5.1,3.6,11.6,3.6,19.3c0,3.3-0.3,6.5-0.8,9.8c-0.6,3.3-1.1,6.8-1.5,10.5l-49.2,14.7c0.5-1.9,0.8-3.7,1.2-5.6
		c0.3-1.9,0.5-3.7,0.5-5.6c0-7-1.2-12.1-3.6-15.2s-5.5-4.7-9.3-4.7c-1.8,0-4,0.7-6.6,2.1c-2.6,1.4-5.2,3.2-7.8,5.4
		c-2.6,2.2-4.8,4.8-6.6,7.9c-1.8,3-2.7,6.3-2.7,9.8c0,5.6,1.5,10.3,4.6,14c3.1,3.7,6.8,7.2,11.4,10.5c4.5,3.3,9.4,6.6,14.8,10
		c5.3,3.4,10.2,7.8,14.8,13.1c4.5,5.4,8.3,12.1,11.4,20.1c3.1,8.1,4.6,18.3,4.6,30.6C256.6,293.8,254.1,305.6,249.3,316.3z"/>
</g>
</svg>
