<?xml version="1.0" standalone="no"?>
<!DOCTYPE svg PUBLIC "-//W3C//DTD SVG 20010904//EN"
 "http://www.w3.org/TR/2001/REC-SVG-20010904/DTD/svg10.dtd">
<svg version="1.0" xmlns="http://www.w3.org/2000/svg"
 width="700.000000pt" height="700.000000pt" viewBox="0 0 700.000000 700.000000"
 preserveAspectRatio="xMidYMid meet">
<metadata>
Created by potrace 1.11, written by Peter Selinger 2001-2013
</metadata>
<g transform="translate(0.000000,700.000000) scale(0.100000,-0.100000)"
fill="#000000" stroke="none">
<path d="M4995 5299 c-33 -10 -80 -29 -105 -41 -47 -24 -180 -149 -180 -169 0
-7 -6 -20 -14 -28 -40 -45 -68 -215 -51 -306 27 -145 130 -285 255 -347 236
-117 520 -32 639 192 83 155 85 301 8 460 -27 57 -138 169 -197 199 -110 57
-250 73 -355 40z"/>
<path d="M3960 5068 c-78 -22 -108 -59 -185 -233 -26 -60 -60 -137 -75 -170
-15 -33 -37 -82 -50 -110 -12 -27 -46 -102 -75 -166 -63 -139 -73 -172 -68
-224 11 -108 90 -198 186 -210 52 -7 180 -18 210 -18 15 -1 27 -2 27 -3 0 -2
-26 -21 -57 -42 -32 -21 -109 -73 -171 -115 -62 -42 -114 -77 -116 -77 -3 0
-41 -23 -85 -50 -88 -55 -252 -141 -346 -182 -176 -76 -395 -173 -433 -190
-24 -10 -193 -85 -375 -165 -183 -80 -355 -156 -384 -169 -29 -13 -139 -61
-245 -108 -214 -94 -274 -120 -333 -146 -22 -10 -148 -65 -280 -123 -224 -98
-300 -132 -400 -177 -22 -10 -74 -32 -115 -49 -168 -71 -229 -142 -238 -275
-6 -99 23 -173 94 -242 49 -49 60 -54 143 -70 43 -8 123 19 311 104 25 11 160
71 300 132 509 224 776 342 838 371 35 16 65 29 67 29 3 0 39 16 81 35 41 19
77 35 80 35 2 0 31 13 64 29 33 16 60 27 60 25 0 -2 -53 -39 -117 -81 -223
-144 -278 -181 -439 -285 -88 -58 -171 -111 -184 -118 -13 -7 -29 -17 -34 -22
-6 -5 -130 -85 -276 -176 -146 -92 -279 -176 -295 -187 -17 -12 -43 -27 -59
-35 -52 -26 -133 -108 -151 -153 -53 -131 23 -305 163 -374 44 -21 69 -27 122
-27 76 1 121 19 235 95 62 41 217 139 628 400 65 40 123 77 130 81 6 5 178
111 381 238 203 126 373 230 377 230 5 0 9 3 9 8 0 4 9 12 20 17 40 20 165
100 168 107 2 5 7 8 12 8 8 0 90 51 500 310 511 323 938 602 1103 722 114 83
119 85 437 256 113 60 286 155 385 212 99 56 199 113 222 126 252 141 989 604
1042 654 32 31 61 97 61 141 0 76 -48 164 -113 206 -35 23 -53 28 -112 28 -71
0 -71 0 -190 -75 -66 -41 -124 -78 -130 -82 -20 -16 -163 -106 -290 -183 -71
-43 -149 -91 -172 -107 -23 -15 -44 -28 -47 -28 -3 0 -60 -33 -128 -73 -172
-102 -235 -138 -371 -212 -45 -24 -102 -55 -127 -69 -25 -14 -50 -26 -56 -26
-6 0 -20 19 -30 43 -10 23 -47 70 -81 104 -93 93 -215 147 -433 189 -19 3
-132 8 -250 9 -172 3 -214 6 -212 17 5 22 72 178 124 285 39 83 48 112 48 155
0 67 -26 124 -75 167 -66 57 -149 79 -225 59z"/>
<path d="M3337 4064 c-1 -2 -18 -6 -37 -9 -19 -3 -71 -12 -116 -20 -44 -8 -94
-17 -110 -19 -16 -2 -85 -13 -154 -25 -69 -12 -136 -24 -150 -26 -23 -4 -179
-30 -240 -40 -14 -3 -36 -7 -50 -9 -14 -3 -43 -8 -65 -11 -22 -3 -47 -7 -55
-10 -15 -4 -67 -12 -124 -20 -15 -3 -35 -6 -45 -9 -9 -3 -36 -8 -61 -11 -25
-4 -146 -24 -270 -45 -238 -41 -287 -49 -335 -56 -16 -3 -52 -9 -80 -14 -59
-11 -60 -11 -290 -50 -99 -17 -191 -33 -205 -35 -14 -2 -106 -18 -205 -35 -99
-17 -187 -33 -195 -35 -8 -2 -35 -7 -60 -10 -25 -3 -144 -23 -265 -43 l-220
-38 -3 -39 c-2 -37 4 -48 86 -145 97 -116 505 -608 565 -682 l38 -46 132 58
c73 31 265 116 427 188 162 72 448 198 635 280 187 82 432 190 545 240 113 49
232 102 265 117 103 46 115 51 295 130 96 43 198 85 225 95 73 25 305 154 305
169 0 3 -18 19 -40 35 -45 33 -81 84 -99 137 -9 29 -31 46 -44 33z"/>
</g>
</svg>
